<?xml version="1.0" encoding="UTF-8"?>
<svg version="1.1" xmlns="http://www.w3.org/2000/svg" width="192" height="192">
<path d="M0 0 C63.36 0 126.72 0 192 0 C192 63.36 192 126.72 192 192 C128.64 192 65.28 192 0 192 C0 128.64 0 65.28 0 0 Z " fill="#E0BD6E" transform="translate(0,0)"/>
<path d="M0 0 C63.36 0 126.72 0 192 0 C192 63.36 192 126.72 192 192 C128.64 192 65.28 192 0 192 C0 128.64 0 65.28 0 0 Z M30.08203125 38.515625 C14.22180271 55.9457374 8.03756406 78.32960497 8.65625 101.52734375 C9.53931741 119.63968714 16.44844207 137.06890766 28 151 C28.68835938 151.85078125 29.37671875 152.7015625 30.0859375 153.578125 C43.21655789 169.03149052 63.66588525 180.78397135 84 183 C111.69694404 184.54064752 134.82134609 178.91222433 156.0078125 160.3671875 C173.35059502 143.79734236 182.80815582 122.5656723 183.47241211 98.703125 C183.56669234 87.54301499 182.66844305 77.57233259 179 67 C178.63777344 65.93910156 178.27554688 64.87820312 177.90234375 63.78515625 C169.58144697 41.86876033 151.93675169 25.51349241 131.04296875 15.7265625 C95.60638896 0.02045775 56.11557028 11.15153488 30.08203125 38.515625 Z " fill="#FBFBFA" transform="translate(0,0)"/>
<path d="M0 0 C12.4457621 9.2638895 21.42083162 22.49015607 24.57421875 37.78515625 C26.61987188 53.23077574 25.32684789 69.97111094 16 83 C13.75 85.5 13.75 85.5 11 88 C9.49451559 89.49449547 7.99504136 90.9950577 6.5 92.5 C5.71238281 93.27988281 4.92476563 94.05976563 4.11328125 94.86328125 C2.5787181 96.41486358 1.11086639 98.03331744 -0.3125 99.6875 C-12.16746649 109.88828512 -27.96767403 112.01558953 -43.05078125 111.17724609 C-50.11441605 110.53493662 -56.6255694 107.97473428 -63 105 C-63 104.34 -63 103.68 -63 103 C-63.72445312 102.74734375 -64.44890625 102.4946875 -65.1953125 102.234375 C-69.19719015 100.47310294 -72.17181312 97.83460211 -75.515625 95.0546875 C-76.94866079 93.86950381 -78.40654742 92.71078944 -79.921875 91.6328125 C-89.7711415 84.35881293 -94.29832421 71.19898334 -96.6875 59.6875 C-98.13119872 42.65185506 -95.47440055 26.84666107 -84.68359375 13.03515625 C-82.52103501 10.60895773 -80.31260017 8.28267743 -78 6 C-77.35417969 5.29101562 -76.70835938 4.58203125 -76.04296875 3.8515625 C-73.75074317 1.77409611 -71.89619665 1.05124339 -69 0 C-66.10218162 -1.48316236 -63.21251151 -2.97572181 -60.34765625 -4.52148438 C-56.12670391 -6.70617509 -52.65899542 -7.56508099 -48 -8 C-48 -8.66 -48 -9.32 -48 -10 C-30.89786063 -13.12101356 -14.42730582 -9.66164093 0 0 Z " fill="#F8F5F1" transform="translate(132,46)"/>
<path d="M0 0 C2.17515859 3.26273789 3.31011941 6.30910713 4.625 10 C5.29402344 11.85625 5.29402344 11.85625 5.9765625 13.75 C7 17 7 17 7 20 C13.93 20 20.86 20 28 20 C26.35 21.65 24.7 23.3 23 25 C22.67 25.66 22.34 26.32 22 27 C22.70125 27.47308594 23.4025 27.94617188 24.125 28.43359375 C32.19240499 34.05666272 39.35943469 40.17125154 44 49 C43.11499529 52.00901602 41.39428964 54.00475863 39 56 C38.34 56 37.68 56 37 56 C36.79246094 55.32195312 36.58492188 54.64390625 36.37109375 53.9453125 C33.03689918 43.87297577 27.75437398 36.18698076 20 29 C16.90837736 30.38589981 15.50816459 31.49183541 13 34 C14.32 38.29 15.64 42.58 17 47 C17.33 45.68 17.66 44.36 18 43 C18.81092994 41.39409285 19.66745577 39.81058994 20.5625 38.25 C21.01753906 37.45078125 21.47257812 36.6515625 21.94140625 35.828125 C22.29074219 35.22484375 22.64007813 34.6215625 23 34 C27.75921376 37.29484029 27.75921376 37.29484029 28.875 40.5625 C29 43 29 43 28 46 C29.37168238 48.19038423 29.37168238 48.19038423 31 50 C29.4411666 53.82622743 27.04566418 56.25147379 24 59 C22.515 59.495 22.515 59.495 21 60 C21.99 61.98 21.99 61.98 23 64 C29.96678972 64 39.01153586 58.35948767 44.0625 53.8125 C48.10349914 49.34073446 50.00445408 43.60040306 52 38 C52.33 38 52.66 38 53 38 C53.70092762 46.1930651 52.80480089 52.20544627 48 59 C39.01122673 69.48378753 26.1912702 73.58190122 13 76 C11.824375 76.226875 10.64875 76.45375 9.4375 76.6875 C-7.81723306 78.2561121 -27.32143901 75.93023705 -41.1875 64.6640625 C-46.9300254 59.39183013 -52.39995925 53.7778117 -53.2421875 45.66796875 C-53.36427925 41.46936921 -53.40055968 39.60083952 -51 36 C-50.79375 37.299375 -50.5875 38.59875 -50.375 39.9375 C-48.35068779 48.7696019 -43.36031372 54.52574491 -35.87890625 59.42578125 C-30.81107377 62.19692981 -25.45839475 64.14346135 -20 66 C-20 65.34 -20 64.68 -20 64 C-20.99 63.505 -20.99 63.505 -22 63 C-22 62.01 -22 61.02 -22 60 C-24.0022155 57.86634803 -26.15953326 55.97641408 -28.34765625 54.03515625 C-30 52 -30 52 -29.7890625 49.875 C-29.52867188 49.25625 -29.26828125 48.6375 -29 48 C-28.26676204 45.98491642 -28.26676204 45.98491642 -28 44 C-28.66 43.01 -29.32 42.02 -30 41 C-30.79423861 42.56119422 -31.58527123 44.12401964 -32.375 45.6875 C-32.81585938 46.55761719 -33.25671875 47.42773438 -33.7109375 48.32421875 C-34.92664268 50.84772799 -35.99260958 53.38737532 -37 56 C-42.875 52.25 -42.875 52.25 -44 50 C-37.73038752 40.34358721 -30.64441305 32.36120861 -21 26 C-21.66 25.67 -22.32 25.34 -23 25 C-23 25.66 -23 26.32 -23 27 C-24.8984375 28.65625 -24.8984375 28.65625 -27.375 30.5 C-29.72904362 32.26366443 -31.9191905 33.9191905 -34 36 C-34.99 36 -35.98 36 -37 36 C-37 31.38 -37 26.76 -37 22 C-34.03 21.67 -31.06 21.34 -28 21 C-28.33 20.34 -28.66 19.68 -29 19 C-21.74 18.67 -14.48 18.34 -7 18 C-5.06727565 12.45141413 -5.06727565 12.45141413 -3.14086914 6.90063477 C-2.77916626 5.86894165 -2.77916626 5.86894165 -2.41015625 4.81640625 C-2.16402588 4.10943604 -1.91789551 3.40246582 -1.66430664 2.67407227 C-1 1 -1 1 0 0 Z " fill="#FAF8F7" transform="translate(96,57)"/>
<path d="M0 0 C16.10415658 13.88169491 25.84590484 32.28438636 29.55078125 53.2109375 C31.24312356 78.00083457 27.44072942 101.73633306 11.15625 121.2421875 C-3.82562478 138.31298934 -22.5184282 150.34458868 -45.44921875 153.2109375 C-72.47756511 154.56023827 -95.93632744 149.48122411 -116.57421875 131.0234375 C-130.89961622 117.66665306 -139.36178669 101.17015628 -143.44921875 82.2109375 C-143.62356445 81.41679443 -143.79791016 80.62265137 -143.97753906 79.80444336 C-147.86744727 58.41598843 -142.161285 35.70275726 -130.44921875 17.7109375 C-117.84775496 0.43914823 -102.04207857 -11.72490746 -81.44921875 -17.7890625 C-79.76505859 -18.315 -79.76505859 -18.315 -78.046875 -18.8515625 C-50.56955016 -26.01177744 -21.52672112 -17.77099531 0 0 Z M-114.27734375 5.09375 C-115.2736868 6.25615023 -116.24849254 7.43754323 -117.1953125 8.640625 C-118.44921875 10.2109375 -118.44921875 10.2109375 -120.88671875 12.5234375 C-135.77288263 28.13575572 -141.13023518 48.32512132 -140.91748047 69.34692383 C-140.21375398 92.60858459 -129.66918291 112.88164276 -113.01171875 128.9296875 C-96.0324753 144.04535545 -74.04760304 151.4502888 -51.44921875 150.2109375 C-27.5208853 148.2825474 -6.94334534 136.84113377 8.48828125 118.7109375 C21.73313486 101.50982892 28.4210512 81.03864502 26.55078125 59.2109375 C23.38918977 35.53377353 13.22344681 14.81751344 -6.07910156 -0.04394531 C-37.94513071 -23.07364055 -85.51596629 -24.52801055 -114.27734375 5.09375 Z " fill="#C49E55" transform="translate(153.44921875,29.7890625)"/>
<path d="M0 0 C2.17515859 3.26273789 3.31011941 6.30910713 4.625 10 C5.29402344 11.85625 5.29402344 11.85625 5.9765625 13.75 C7 17 7 17 7 20 C13.93 20 20.86 20 28 20 C26.35 21.65 24.7 23.3 23 25 C22.67 25.66 22.34 26.32 22 27 C22.70125 27.47308594 23.4025 27.94617188 24.125 28.43359375 C32.19240499 34.05666272 39.35943469 40.17125154 44 49 C43.11499529 52.00901602 41.39428964 54.00475863 39 56 C38.34 56 37.68 56 37 56 C36.79246094 55.32195312 36.58492188 54.64390625 36.37109375 53.9453125 C33.03689918 43.87297577 27.75437398 36.18698076 20 29 C17.09457188 30.3024333 15.1907039 31.70886268 13 34 C13.37253906 35.20398438 13.74507812 36.40796875 14.12890625 37.6484375 C14.60715406 39.22384205 15.08499777 40.79936931 15.5625 42.375 C15.80935547 43.1690625 16.05621094 43.963125 16.31054688 44.78125 C16.53935547 45.54179688 16.76816406 46.30234375 17.00390625 47.0859375 C17.21861572 47.7876709 17.4333252 48.4894043 17.65454102 49.21240234 C18 51 18 51 17 53 C9.08 47.555 9.08 47.555 1 42 C-3.48900322 44.41715558 -7.83350851 46.78212654 -11.9375 49.8125 C-15 52 -15 52 -17 52 C-15.33333333 45.33333333 -13.66666667 38.66666667 -12 32 C-14.64877696 30.58101234 -17.08014819 29.68088981 -20 29 C-27.72645141 37.11865707 -33.44289131 45.32867393 -37 56 C-42.875 52.25 -42.875 52.25 -44 50 C-37.73038752 40.34358721 -30.64441305 32.36120861 -21 26 C-21.66 25.67 -22.32 25.34 -23 25 C-23 25.66 -23 26.32 -23 27 C-24.8984375 28.65625 -24.8984375 28.65625 -27.375 30.5 C-29.72904362 32.26366443 -31.9191905 33.9191905 -34 36 C-34.99 36 -35.98 36 -37 36 C-37 31.38 -37 26.76 -37 22 C-34.03 21.67 -31.06 21.34 -28 21 C-28.33 20.34 -28.66 19.68 -29 19 C-21.74 18.67 -14.48 18.34 -7 18 C-5.06727565 12.45141413 -5.06727565 12.45141413 -3.14086914 6.90063477 C-2.77916626 5.86894165 -2.77916626 5.86894165 -2.41015625 4.81640625 C-2.16402588 4.10943604 -1.91789551 3.40246582 -1.66430664 2.67407227 C-1 1 -1 1 0 0 Z " fill="#C32928" transform="translate(96,57)"/>
<path d="M0 0 C12.05762511 10.04896484 21.61831878 24.50724195 23.10546875 40.38867188 C23.78987775 52.19852932 23.82067352 63.67260122 18.84375 74.59375 C18.44285156 75.51671875 18.04195313 76.4396875 17.62890625 77.390625 C10.38671368 92.25286366 -2.86843194 103.72374391 -18.15625 109.59375 C-18.93871094 109.91472656 -19.72117187 110.23570312 -20.52734375 110.56640625 C-35.64427958 115.76663217 -53.20908138 113.50110145 -67.44140625 107.12109375 C-83.09728027 99.37555608 -94.14096504 86.94298603 -100.15625 70.59375 C-105.54246806 53.85104807 -104.56202665 35.64839741 -96.53125 19.90625 C-93.99120327 15.66212129 -91.15700965 11.63196786 -88.21875 7.65625 C-87.82413574 7.11202393 -87.42952148 6.56779785 -87.02294922 6.00708008 C-83.83166084 1.86589586 -80.70506374 -0.03984465 -76.15625 -2.40625 C-74.59230204 -3.40398395 -73.0296649 -4.4037776 -71.46875 -5.40625 C-49.0596053 -18.89956122 -20.33501839 -15.50293481 0 0 Z M-52.15625 -10.40625 C-52.15625 -9.74625 -52.15625 -9.08625 -52.15625 -8.40625 C-53.67025391 -8.26316406 -53.67025391 -8.26316406 -55.21484375 -8.1171875 C-59.31470566 -7.52928277 -62.54703908 -5.95859327 -66.21875 -4.03125 C-67.38535156 -3.42539062 -68.55195312 -2.81953125 -69.75390625 -2.1953125 C-70.87667969 -1.60492188 -71.99945313 -1.01453125 -73.15625 -0.40625 C-74.1875 0.07199219 -75.21875 0.55023438 -76.28125 1.04296875 C-88.56188957 7.66717243 -95.37824154 21.01621025 -99.4296875 33.8046875 C-103.6921983 50.16722895 -100.56341319 65.73713776 -93.0703125 80.53515625 C-91.07178524 83.72872124 -88.90245919 86.02975374 -86.15625 88.59375 C-85.60582031 89.17898437 -85.05539063 89.76421875 -84.48828125 90.3671875 C-79.92477641 95.17705121 -74.84357526 99.173037 -69.15625 102.59375 C-68.49625 102.59375 -67.83625 102.59375 -67.15625 102.59375 C-67.15625 103.25375 -67.15625 103.91375 -67.15625 104.59375 C-65.09575145 105.41131238 -63.03276147 106.22259734 -60.96875 107.03125 C-59.82019531 107.48371094 -58.67164063 107.93617188 -57.48828125 108.40234375 C-42.82767771 113.64441184 -25.90235015 110.83122401 -12.03125 104.65625 C-3.43763035 100.15802722 1.9511625 93.55198883 7.8984375 85.9765625 C9.84375 83.59375 9.84375 83.59375 11.9296875 81.63671875 C20.73954797 72.23354114 21.37011455 57.17603486 21.08984375 45.03515625 C20.38425358 28.46958414 12.01603789 14.35822915 0.34375 2.96875 C-14.29526837 -9.16811788 -33.59342785 -13.8366374 -52.15625 -10.40625 Z " fill="#912B1F" transform="translate(136.15625,46.40625)"/>
<path d="M0 0 C0.33 0 0.66 0 1 0 C1.20625 1.299375 1.4125 2.59875 1.625 3.9375 C3.62620964 12.66880509 8.58870326 18.57651051 16.00390625 23.4296875 C21.72031301 26.42577031 27.80409725 28.23599004 34 30 C34.60497314 30.17958252 35.20994629 30.35916504 35.83325195 30.54418945 C53.75640919 34.31461588 74.94231532 31.69982457 90.40625 21.91015625 C97.68412635 16.5503949 101.19423457 10.50443188 104 2 C104.33 2 104.66 2 105 2 C105.70092762 10.1930651 104.80480089 16.20544627 100 23 C91.01122673 33.48378753 78.1912702 37.58190122 65 40 C63.824375 40.226875 62.64875 40.45375 61.4375 40.6875 C44.18276694 42.2561121 24.67856099 39.93023705 10.8125 28.6640625 C5.1062057 23.42509403 -0.48840569 17.76267553 -1.20703125 9.66796875 C-1.27019149 6.11376988 -1.1322523 3.39675689 0 0 Z " fill="#8F2423" transform="translate(44,93)"/>
<path d="M0 0 C1.95766281 -0.08082094 3.91626728 -0.13910778 5.875 -0.1875 C7.51082031 -0.23970703 7.51082031 -0.23970703 9.1796875 -0.29296875 C10.11039063 -0.19628906 11.04109375 -0.09960938 12 0 C14.1519437 3.22791555 14.20086443 4.28400809 14 8 C14.928125 8.144375 15.85625 8.28875 16.8125 8.4375 C20 9 20 9 23 10 C25.19038423 8.62831762 25.19038423 8.62831762 27 7 C30.98882376 8.53416298 34.64783382 11.4247074 37 15 C36.70703125 17.03515625 36.70703125 17.03515625 36 19 C35.1791675 22.36541324 34.8799929 23.63997871 36 27 C32.898604 27.43419544 30.08833636 27.58510491 27 27 C25.17711018 25.43567611 23.94626148 23.76208987 22.5390625 21.8203125 C19.346258 18.04405135 14.58203817 16.52734606 10 15 C8.83203125 12.93359375 8.83203125 12.93359375 7.8125 10.4375 C7.46832031 9.61121094 7.12414062 8.78492188 6.76953125 7.93359375 C6.51558594 7.29550781 6.26164062 6.65742187 6 6 C5.89945313 6.60328125 5.79890625 7.2065625 5.6953125 7.828125 C5.06356272 10.51089803 4.39285136 12.61225481 3 15 C0.53852415 16.43586091 -1.84408487 17.24013059 -4.5546875 18.10546875 C-9.0945556 19.76621922 -11.40294214 23.10441322 -14 27 C-16.1640625 27.29296875 -16.1640625 27.29296875 -18.625 27.1875 C-19.85089844 27.14689453 -19.85089844 27.14689453 -21.1015625 27.10546875 C-21.72804688 27.07066406 -22.35453125 27.03585938 -23 27 C-22.773125 26.113125 -22.54625 25.22625 -22.3125 24.3125 C-21.62341792 20.50798018 -21.62341792 20.50798018 -25 16 C-22.03 13.03 -19.06 10.06 -16 7 C-14.35 7.99 -12.7 8.98 -11 10 C-7.62818213 9.83444429 -4.85027932 8.79987758 -2 7 C-0.59105948 4.56393109 -0.37664171 2.85171581 0 0 Z " fill="#902424" transform="translate(90,48)"/>
<path d="M0 0 C0.33 0 0.66 0 1 0 C1 1.98 1 3.96 1 6 C1.66 6 2.32 6 3 6 C2.67 6.99 2.34 7.98 2 9 C1.85426942 10.47965926 1.75336732 11.96403843 1.68359375 13.44921875 C1.62075195 14.72055664 1.62075195 14.72055664 1.55664062 16.01757812 C1.51732422 16.89865234 1.47800781 17.77972656 1.4375 18.6875 C1.37272461 20.02651367 1.37272461 20.02651367 1.30664062 21.39257812 C1.20064647 23.59490108 1.09857949 25.79733473 1 28 C-4.71122747 26.84219704 -10.09469921 25.39224689 -15.5625 23.375 C-17.38974609 22.70597656 -17.38974609 22.70597656 -19.25390625 22.0234375 C-20.61322266 21.51683594 -20.61322266 21.51683594 -22 21 C-22.33 21.33 -22.66 21.66 -23 22 C-22.59070014 24.05396726 -22.59070014 24.05396726 -22 26 C-22.62648438 26.48210937 -23.25296875 26.96421875 -23.8984375 27.4609375 C-24.71570313 28.09257813 -25.53296875 28.72421875 -26.375 29.375 C-27.18710938 30.00148438 -27.99921875 30.62796875 -28.8359375 31.2734375 C-31.04223195 32.96773494 -31.04223195 32.96773494 -33 35 C-33.99 35 -34.98 35 -36 35 C-36 30.38 -36 25.76 -36 21 C-33.03 20.67 -30.06 20.34 -27 20 C-27.33 19.34 -27.66 18.68 -28 18 C-20.74 17.67 -13.48 17.34 -6 17 C-4.02 11.39 -2.04 5.78 0 0 Z " fill="#D22C29" transform="translate(95,58)"/>
<path d="M0 0 C6.45010247 0.26875427 10.29672276 2.63413178 15 7 C15.47953125 7.71414062 15.9590625 8.42828125 16.453125 9.1640625 C17.8481742 11.19118101 17.8481742 11.19118101 20.15625 11.50390625 C21.31640625 11.53291016 21.31640625 11.53291016 22.5 11.5625 C26.33437019 11.67114049 27.38807787 12.27480574 30 15 C32.475 15.99 32.475 15.99 35 17 C35 20.96 35 24.92 35 29 C30.2047363 29 29.32445916 28.01007087 25.75 25 C24.41195312 23.88625 24.41195312 23.88625 23.046875 22.75 C22.37140625 22.1725 21.6959375 21.595 21 21 C22.875 16.125 22.875 16.125 24 15 C17.4 14.67 10.8 14.34 4 14 C0 2.25 0 2.25 0 0 Z " fill="#F4E8E7" transform="translate(99,63)"/>
<path d="M0 0 C12.77794795 9.74160388 23.54271267 23.72300994 26 40 C26.85714932 50.73989863 27.082843 61.61242859 24 72 C22.515 71.01 22.515 71.01 21 70 C21.495 68.329375 21.495 68.329375 22 66.625 C25.64157009 50.041447 22.65605554 33.48564396 14 19 C4.37953813 4.72447593 -9.4145969 -4.00087262 -26.234375 -7.54296875 C-34.12131918 -8.5002016 -42.07174353 -8.21342266 -50 -8 C-49.67 -8.66 -49.34 -9.32 -49 -10 C-32.72376407 -14.6120961 -13.56742527 -9.18199488 0 0 Z " fill="#8F281E" transform="translate(133,44)"/>
<path d="M0 0 C4.75921376 3.29484029 4.75921376 3.29484029 5.875 6.5625 C6 9 6 9 5 12 C6.37168238 14.19038423 6.37168238 14.19038423 8 16 C6.4411666 19.82622743 4.04566418 22.25147379 1 25 C0.01 25.33 -0.98 25.66 -2 26 C-1.34 27.32 -0.68 28.64 0 30 C-0.99 30 -1.98 30 -3 30 C-3.34998047 29.04287109 -3.34998047 29.04287109 -3.70703125 28.06640625 C-4.916467 25.32701292 -6.0021419 23.24335761 -8 21 C-11.69678995 19.90965465 -15.16558228 19.83211831 -19 20 C-19 19.01 -19 18.02 -19 17 C-14.20979426 15.99153563 -11.32006978 15.41966792 -7 17.9375 C-6.01 18.618125 -5.02 19.29875 -4 20 C-4.20238281 19.3709375 -4.40476562 18.741875 -4.61328125 18.09375 C-6.47408727 11.19109528 -6.47408727 11.19109528 -5.0546875 7.625 C-3.79065017 5.66032483 -2.44914977 3.83050497 -1 2 C-0.67 1.34 -0.34 0.68 0 0 Z " fill="#8F2323" transform="translate(119,91)"/>
<path d="M0 0 C3.19370081 2.71464569 5.6531459 6.0326363 7 10 C7.03978195 13.41130262 6.62012785 16.6499615 6 20 C7.485 18.9790625 7.485 18.9790625 9 17.9375 C13.32006978 15.41966792 16.20979426 15.99153563 21 17 C21 17.99 21 18.98 21 20 C17.04 20 13.08 20 9 20 C8.71125 20.9075 8.4225 21.815 8.125 22.75 C7.23468224 25.32202908 6.28505587 27.61346766 5 30 C4.01 29.67 3.02 29.34 2 29 C2 28.01 2 27.02 2 26 C-0.0022155 23.86634803 -2.15953326 21.97641408 -4.34765625 20.03515625 C-6 18 -6 18 -5.78515625 15.87109375 C-5.52605469 15.25363281 -5.26695313 14.63617188 -5 14 C-4.02004122 11.04836141 -4.02004122 11.04836141 -4.75 8.125 C-5 6 -5 6 -3.95703125 4.4140625 C-2.68781991 2.89954141 -1.34710627 1.44567502 0 0 Z " fill="#8F2121" transform="translate(72,91)"/>
<path d="M0 0 C0 0.66 0 1.32 0 2 C-1.5159375 3.2375 -1.5159375 3.2375 -3.0625 4.5 C-11.19671854 11.3031646 -15.35764729 20.23110932 -19 30 C-24.875 26.25 -24.875 26.25 -26 24 C-10.41753653 0 -10.41753653 0 0 0 Z " fill="#8E2423" transform="translate(78,83)"/>
<path d="M0 0 C9.40488428 1.21946102 15.93399202 9.66508449 21.50390625 16.703125 C22.94674813 18.91824518 23.80259385 20.36791797 24 23 C21.6875 25.75 21.6875 25.75 19 28 C18.34 28 17.68 28 17 28 C16.79246094 27.32195312 16.58492187 26.64390625 16.37109375 25.9453125 C12.96765648 15.66379906 7.13811573 8.00861765 0 0 Z " fill="#902827" transform="translate(116,85)"/>
<path d="M0 0 C2.9719385 1.12451727 5.33440687 2.22293791 8 4 C7.35346673 10.95023264 5.13972752 17.38177303 3 24 C5.31 22.68 7.62 21.36 10 20 C10.33 20.66 10.66 21.32 11 22 C6.05 24.475 6.05 24.475 1 27 C1.37125 24.4940625 1.37125 24.4940625 1.75 21.9375 C2.29137521 16.18260732 1.42025987 13.5929204 -2 9 C-2.66 8.34 -3.32 7.68 -4 7 C-5.65 8.65 -7.3 10.3 -9 12 C-7.55575365 8.76138697 -5.74227753 6.38030837 -3.375 3.75 C-2.74335937 3.04359375 -2.11171875 2.3371875 -1.4609375 1.609375 C-0.97882813 1.07828125 -0.49671875 0.5471875 0 0 Z " fill="#F7F1F0" transform="translate(76,85)"/>
<path d="M0 0 C0.33 0 0.66 0 1 0 C0.96519531 1.20914063 0.93039063 2.41828125 0.89453125 3.6640625 C0.50022707 22.98100427 3.90736648 39.16753131 16.6171875 54.328125 C18 56 18 56 19 58 C15.32402396 57.4474023 13.93998571 56.22084074 11.6875 53.3125 C0.98581442 38.79042774 -3.52608519 22.91663653 -2 5 C-0.98046875 2.03125 -0.98046875 2.03125 0 0 Z " fill="#8F2A1F" transform="translate(35,83)"/>
<path d="M0 0 C1.2375 0.556875 2.475 1.11375 3.75 1.6875 C3.75 5.6475 3.75 9.6075 3.75 13.6875 C-1.0452637 13.6875 -1.92554084 12.69757087 -5.5 9.6875 C-6.39203125 8.945 -7.2840625 8.2025 -8.203125 7.4375 C-8.87859375 6.86 -9.5540625 6.2825 -10.25 5.6875 C-7.74057513 0.43952887 -5.93607393 -2.22340578 0 0 Z " fill="#922727" transform="translate(130.25,78.3125)"/>
<path d="M0 0 C0.8353125 0.7734375 0.8353125 0.7734375 1.6875 1.5625 C1.6875 2.2225 1.6875 2.8825 1.6875 3.5625 C-0.2109375 5.21875 -0.2109375 5.21875 -2.6875 7.0625 C-5.04154362 8.82616443 -7.2316905 10.4816905 -9.3125 12.5625 C-10.3025 12.5625 -11.2925 12.5625 -12.3125 12.5625 C-12.3125 7.9425 -12.3125 3.3225 -12.3125 -1.4375 C-7.10340877 -2.47931825 -4.48601877 -2.78860627 0 0 Z " fill="#8F2625" transform="translate(71.3125,80.4375)"/>
<path d="M0 0 C-0.99 0.78375 -1.98 1.5675 -3 2.375 C-3.99 3.24125 -4.98 4.1075 -6 5 C-6 5.66 -6 6.32 -6 7 C-6.7425 7.268125 -7.485 7.53625 -8.25 7.8125 C-11.01489498 8.83269804 -11.01489498 8.83269804 -12.875 10.6875 C-16.11427465 12.68822846 -18.38516437 11.8244362 -22 11 C-24.9375 9.9375 -24.9375 9.9375 -27 9 C-26 7 -26 7 -23.4453125 6.0703125 C-22.34960938 5.75835937 -21.25390625 5.44640625 -20.125 5.125 C-14.68407423 3.53531386 -9.41728415 1.71339595 -4.14453125 -0.36328125 C-2 -1 -2 -1 0 0 Z " fill="#B52826" transform="translate(124,78)"/>
<path d="M0 0 C4.2267155 0.64041144 8.48317495 1.48112945 12 4 C13.58012851 6.71576559 14.27802115 9.52059612 15 12.5625 C15.21527344 13.34302734 15.43054688 14.12355469 15.65234375 14.92773438 C17.16723867 20.66552266 17.16723867 20.66552266 16 23 C14.10354628 20.39237614 12.20734397 17.78457536 10.3125 15.17578125 C8.77578592 13.0653952 7.23414267 10.95858927 5.6875 8.85546875 C4.6046875 7.38013672 4.6046875 7.38013672 3.5 5.875 C2.8296875 4.96492188 2.159375 4.05484375 1.46875 3.1171875 C0 1 0 1 0 0 Z " fill="#CF2E2C" transform="translate(97,87)"/>
<path d="M0 0 C2.1489362 3.22340429 3.34749944 6.24279217 4.6875 9.875 C5.14511719 11.08929688 5.60273437 12.30359375 6.07421875 13.5546875 C7.00775269 17.02885179 7.18439981 18.65479274 6 22 C4.53863123 24.27598312 2.8573375 26.00336219 1 28 C0.67 28 0.34 28 0 28 C-0.05390357 25.06225537 -0.0936255 22.12549768 -0.125 19.1875 C-0.14175781 18.35412109 -0.15851563 17.52074219 -0.17578125 16.66210938 C-0.18222656 15.85966797 -0.18867187 15.05722656 -0.1953125 14.23046875 C-0.20578613 13.49207764 -0.21625977 12.75368652 -0.22705078 11.99291992 C0 10 0 10 2 7 C1.34 7 0.68 7 0 7 C0 4.69 0 2.38 0 0 Z " fill="#B22827" transform="translate(96,57)"/>
<path d="M0 0 C8.74218041 1.56110365 16.75983375 4.78481857 25 8 C21.92126202 11.07873798 18.29448554 11.77700326 14 12 C10.4375 10.3125 10.4375 10.3125 8 8 C8 7.01 8 6.02 8 5 C7.236875 4.9175 6.47375 4.835 5.6875 4.75 C2.47626739 3.85384206 1.70625501 2.78388975 0 0 Z " fill="#B22826" transform="translate(70,78)"/>
<path d="M0 0 C1.65 0 3.3 0 5 0 C5 2.64 5 5.28 5 8 C5.66 8.33 6.32 8.66 7 9 C6.01 10.32 5.02 11.64 4 13 C5.98 13 7.96 13 10 13 C10 13.66 10 14.32 10 15 C5.05 15 0.1 15 -5 15 C-5 14.34 -5 13.68 -5 13 C-3.35 12.67 -1.7 12.34 0 12 C-0.99 10.68 -1.98 9.36 -3 8 C-2.01 8 -1.02 8 0 8 C0 5.36 0 2.72 0 0 Z " fill="#902C29" transform="translate(94,104)"/>
<path d="M0 0 C0 0.99 0 1.98 0 3 C-0.76183594 3.23074219 -1.52367188 3.46148437 -2.30859375 3.69921875 C-8.30157436 5.59213272 -13.69443666 7.66534667 -19.0625 10.94921875 C-21.08420262 12.04566634 -22.71435649 12.71905632 -25 13 C-25.66 12.34 -26.32 11.68 -27 11 C-6.72128378 -3.36064189 -6.72128378 -3.36064189 0 0 Z " fill="#9D4931" transform="translate(84,35)"/>
<path d="M0 0 C2.390625 1.29296875 2.390625 1.29296875 5.25 3.1875 C6.72146484 4.15429688 6.72146484 4.15429688 8.22265625 5.140625 C9.13917969 5.75421875 10.05570313 6.3678125 11 7 C12.01900391 7.67289062 12.01900391 7.67289062 13.05859375 8.359375 C14.37731432 9.23219725 15.68966504 10.11463854 17 11 C17.66 10.67 18.32 10.34 19 10 C19.33 11.32 19.66 12.64 20 14 C17.0280615 12.87548273 14.66559313 11.77706209 12 10 C9.94290404 9.75944532 9.94290404 9.75944532 7.8125 9.875 C6.554375 9.91625 5.29625 9.9575 4 10 C4 10.99 4 11.98 4 13 C4.66 13 5.32 13 6 13 C5.67 13.66 5.34 14.32 5 15 C4.34 14.67 3.68 14.34 3 14 C3 11.36 3 8.72 3 6 C1.02 6 -0.96 6 -3 6 C-2.625 3.5625 -2.625 3.5625 -2 1 C-1.34 0.67 -0.68 0.34 0 0 Z " fill="#F6EDEA" transform="translate(96,98)"/>
<path d="M0 0 C0 0.99 0 1.98 0 3 C-3.96 3 -7.92 3 -12 3 C-12.28875 3.9075 -12.5775 4.815 -12.875 5.75 C-13.76531776 8.32202908 -14.71494413 10.61346766 -16 13 C-16.99 12.67 -17.98 12.34 -19 12 C-19 11.01 -19 10.02 -19 9 C-19.3062434 7.66018514 -19.63451555 6.32488113 -20 5 C-7.69931663 -2.07289294 -7.69931663 -2.07289294 0 0 Z " fill="#943837" transform="translate(93,108)"/>
<path d="M0 0 C0.66 0 1.32 0 2 0 C1.45612822 4.44271164 0.36052924 7.71904871 -1.8125 11.625 C-2.31394531 12.54539062 -2.81539062 13.46578125 -3.33203125 14.4140625 C-5.36303412 17.56283042 -7.43018627 20.26742026 -10.875 21.875 C-14.19231943 23.63122793 -16.41322829 26.29564775 -19 29 C-19.66 28.67 -20.32 28.34 -21 28 C-20.34773437 27.35933594 -19.69546875 26.71867187 -19.0234375 26.05859375 C-16.32874696 23.3917245 -13.65879222 20.70264037 -11 18 C-10.39800781 17.39414063 -9.79601562 16.78828125 -9.17578125 16.1640625 C-4.7748833 11.42818806 -2.42839265 5.94204042 0 0 Z " fill="#A45338" transform="translate(154,115)"/>
<path d="M0 0 C0.969375 0.845625 1.93875 1.69125 2.9375 2.5625 C7.17152248 6.19785946 11.57169222 9.60596819 16 13 C14.02 13.99 14.02 13.99 12 15 C10.49147143 13.90751403 8.99337169 12.80061501 7.5 11.6875 C6.6646875 11.07261719 5.829375 10.45773438 4.96875 9.82421875 C3.99421875 8.92123047 3.99421875 8.92123047 3 8 C3 7.01 3 6.02 3 5 C2.0206121 3.97980427 1.02104551 2.97850195 0 2 C0 1.34 0 0.68 0 0 Z " fill="#AA5A3B" transform="translate(49,134)"/>
<path d="M0 0 C-0.66 1.32 -1.32 2.64 -2 4 C-2.37769531 3.35546875 -2.75539063 2.7109375 -3.14453125 2.046875 C-4.86059908 -0.24029762 -4.86059908 -0.24029762 -7.69921875 -0.609375 C-8.68535156 -0.65578125 -9.67148438 -0.7021875 -10.6875 -0.75 C-11.68136719 -0.80671875 -12.67523438 -0.8634375 -13.69921875 -0.921875 C-14.83810547 -0.96054688 -14.83810547 -0.96054688 -16 -1 C-16 -1.99 -16 -2.98 -16 -4 C-9.65704566 -6.11431811 -5.3333202 -3.24182208 0 0 Z " fill="#90302F" transform="translate(116,112)"/>
<path d="M0 0 C0.66 0 1.32 0 2 0 C-0.76972043 6.34905145 -6.75500783 12.06118015 -13 15 C-13.66 15 -14.32 15 -15 15 C-13.81402252 11.44206755 -12.72223632 10.80004711 -9.75 8.625 C-7.00033199 6.56602761 -4.42770282 4.55555162 -2.0625 2.0625 C-1.381875 1.381875 -0.70125 0.70125 0 0 Z " fill="#8F251B" transform="translate(143,135)"/>
<path d="M0 0 C0.33 0.66 0.66 1.32 1 2 C1.66 2 2.32 2 3 2 C3 5.96 3 9.92 3 14 C2.34 14 1.68 14 1 14 C0.67 14.66 0.34 15.32 0 16 C0 10.72 0 5.44 0 0 Z " fill="#BD9447" transform="translate(10,88)"/>
<path d="M0 0 C7.26 0 14.52 0 22 0 C22 0.33 22 0.66 22 1 C21.03578125 1.06058594 20.0715625 1.12117188 19.078125 1.18359375 C17.81484375 1.26738281 16.5515625 1.35117188 15.25 1.4375 C13.99703125 1.51871094 12.7440625 1.59992188 11.453125 1.68359375 C8.81682447 1.92515522 6.51962706 2.24283934 4 3 C4.99 4.485 4.99 4.485 6 6 C2.21503862 4.48601545 1.9927802 3.9855604 0 0 Z " fill="#D98B87" transform="translate(67,76)"/>
<path d="M0 0 C4.95 0 9.9 0 15 0 C10.25294723 3.16470185 6.68228705 3.10927475 1 3 C0.67 2.01 0.34 1.02 0 0 Z " fill="#F0D28B" transform="translate(89,159)"/>
<path d="M0 0 C0 0.66 0 1.32 0 2 C-4.95 2 -9.9 2 -15 2 C-15 1.34 -15 0.68 -15 0 C-9.77254141 -1.2063366 -5.23471686 -0.75612577 0 0 Z " fill="#AA7370" transform="translate(104,117)"/>
<path d="M0 0 C-0.99 0.78375 -1.98 1.5675 -3 2.375 C-4.485 3.674375 -4.485 3.674375 -6 5 C-6 5.66 -6 6.32 -6 7 C-7.32 7 -8.64 7 -10 7 C-10.33 6.01 -10.66 5.02 -11 4 C-9.71264403 1.42528807 -8.71510189 1.29583343 -6.0625 0.3125 C-5.35222656 0.04050781 -4.64195313 -0.23148437 -3.91015625 -0.51171875 C-2 -1 -2 -1 0 0 Z " fill="#A62927" transform="translate(124,78)"/>
<path d="M0 0 C-2.64 2.64 -5.28 5.28 -8 8 C-8.66 7.01 -9.32 6.02 -10 5 C-5.03424658 -1.67808219 -5.03424658 -1.67808219 0 0 Z " fill="#973624" transform="translate(59,48)"/>
<path d="M0 0 C2 3 2 3 1.7578125 5.69921875 C1.54898438 6.68535156 1.34015625 7.67148438 1.125 8.6875 C0.81949219 10.17830078 0.81949219 10.17830078 0.5078125 11.69921875 C0.34023437 12.45847656 0.17265625 13.21773437 0 14 C-0.99 13.34 -1.98 12.68 -3 12 C-2.01 8.04 -1.02 4.08 0 0 Z " fill="#963125" transform="translate(157,102)"/>
<path d="M0 0 C0.66 0.33 1.32 0.66 2 1 C0.77937479 2.44475986 -0.45192126 3.88050764 -1.6875 5.3125 C-2.37199219 6.11300781 -3.05648437 6.91351563 -3.76171875 7.73828125 C-6.01677668 10.01695236 -8.19152343 11.48017643 -11 13 C-9.46356148 9.31930113 -7.21849055 7.01224796 -4.375 4.25 C-3.55773438 3.45078125 -2.74046875 2.6515625 -1.8984375 1.828125 C-0.95871094 0.92320313 -0.95871094 0.92320313 0 0 Z " fill="#DCC49A" transform="translate(58,48)"/>
<path d="M0 0 C2.31 0.66 4.62 1.32 7 2 C7 2.66 7 3.32 7 4 C7.99 4.33 8.98 4.66 10 5 C10 5.66 10 6.32 10 7 C6.51329166 5.8905928 3.22515763 4.73662334 0 3 C0 2.01 0 1.02 0 0 Z " fill="#993D2A" transform="translate(62,147)"/>
<path d="M0 0 C0.66 0 1.32 0 2 0 C1.34 2.31 0.68 4.62 0 7 C2.31 5.68 4.62 4.36 7 3 C7.33 3.66 7.66 4.32 8 5 C3.05 7.475 3.05 7.475 -2 10 C-1.34 6.7 -0.68 3.4 0 0 Z " fill="#ECD0CC" transform="translate(79,102)"/>
<path d="M0 0 C0.66 0.33 1.32 0.66 2 1 C1.67 1.99 1.34 2.98 1 4 C3.31 5.65 5.62 7.3 8 9 C7.34 9.66 6.68 10.32 6 11 C3.03 8.69 0.06 6.38 -3 4 C-2.01 2.68 -1.02 1.36 0 0 Z " fill="#EED9D8" transform="translate(120,80)"/>
<path d="M0 0 C0 0.99 0 1.98 0 3 C-3.3 3.66 -6.6 4.32 -10 5 C-8.68 4.01 -7.36 3.02 -6 2 C-6 1.34 -6 0.68 -6 0 C-2.25 -1.125 -2.25 -1.125 0 0 Z " fill="#B06847" transform="translate(84,35)"/>
<path d="M0 0 C0.33 0 0.66 0 1 0 C1.66 3.3 2.32 6.6 3 10 C2.01 10 1.02 10 0 10 C-0.33 10.66 -0.66 11.32 -1 12 C-1.02712066 10.56260487 -1.04645067 9.12506137 -1.0625 7.6875 C-1.07410156 6.88699219 -1.08570313 6.08648437 -1.09765625 5.26171875 C-1 3 -1 3 0 0 Z " fill="#8B3634" transform="translate(44,93)"/>
<path d="M0 0 C0.66 0 1.32 0 2 0 C1.60196439 2.88575819 1.20990931 3.82189513 -1.0625 5.75 C-1.701875 6.1625 -2.34125 6.575 -3 7 C-2.25 2.25 -2.25 2.25 0 0 Z " fill="#BC9243" transform="translate(43,28)"/>
<path d="M0 0 C3.6875 0.3125 3.6875 0.3125 7 1 C7 1.66 7 2.32 7 3 C3.7 3 0.4 3 -3 3 C-2.01 2.01 -1.02 1.02 0 0 Z " fill="#8C2421" transform="translate(85,107)"/>
<path d="M0 0 C0.99 0.33 1.98 0.66 3 1 C1.84826645 3.46800047 0.95216435 5.04783565 -1 7 C-1.625 4.625 -1.625 4.625 -2 2 C-1.34 1.34 -0.68 0.68 0 0 Z " fill="#A34C34" transform="translate(146,129)"/>
<path d="M0 0 C-0.33 0.66 -0.66 1.32 -1 2 C-4.63 1.34 -8.26 0.68 -12 0 C-12 -0.33 -12 -0.66 -12 -1 C-7.48281619 -2.36884358 -4.41225737 -1.47075246 0 0 Z " fill="#963122" transform="translate(115,36)"/>
<path d="M0 0 C3.36591866 1.44253657 5.51047079 3.33264727 8 6 C6.1875 6.6875 6.1875 6.6875 4 7 C2.25 5.6875 2.25 5.6875 1 4 C1 3.34 1 2.68 1 2 C0.67 1.34 0.34 0.68 0 0 Z " fill="#BA7854" transform="translate(57,142)"/>
<path d="M0 0 C0.33 0.66 0.66 1.32 1 2 C1.66 2 2.32 2 3 2 C1.84826645 4.46800047 0.95216435 6.04783565 -1 8 C-1.625 5.125 -1.625 5.125 -2 2 C-1.34 1.34 -0.68 0.68 0 0 Z " fill="#95302E" transform="translate(67,89)"/>
<path d="M0 0 C4.455 0.99 4.455 0.99 9 2 C8.34 2.66 7.68 3.32 7 4 C3.375 3.625 3.375 3.625 0 3 C0 2.01 0 1.02 0 0 Z " fill="#963425" transform="translate(81,155)"/>
</svg>
